<svg xmlns="http://www.w3.org/2000/svg" viewBox="0 0 480 140"><defs><style>.a{fill:none;}.b{fill:#bdb100;}</style></defs><title>Nuvelle_orig_t</title><rect class="a" width="480" height="140"/><path d="M37.1,85.14c.38-5,2.46-42.83,2.85-49.75h.15c2.15,2.15,39.4,36,41.86,38.12,0-1.88.46-33.55.54-35.77l7.16.34c-.31,4-1.77,31.53-2.08,48.47h-.15c-2.08-1.82-41-36.71-42.55-38.39,0,2.35-.62,35.23-.54,37.45Z"/><path d="M115.28,54c0,10.89.54,15.87,3.54,20.51S126.59,81,132.13,81c6.62,0,10.85-2.89,13.39-6.39,3.69-5,3.77-13.24,3.77-23.8V48.5c0-4.64-.31-8.61-.46-11.09h7.31c0,1.48.08,5.92.08,11.23v3.09c0,12.91-.85,21.11-6.62,27.36-4.54,4.84-10.31,7.13-18.47,7.13-4.16,0-12.54-.54-17.93-8-3.62-5-4.92-10.29-4.92-26.62V48c0-3.09.08-8,.08-9.55h7.31c-.15,1.75-.38,4.91-.38,11Z"/><path d="M221.93,40.23c-2.69,3.5-26.16,42.49-28.93,47.13h-.15c-1.62-2.08-24.16-44-26.47-47.13L173,37c1.23,3,19.16,35.9,20.7,38,1.31-1.61,21-35.83,21.93-38Z"/><path d="M260.33,85.81c-1.23,0-24.39-.67-25.93-.67.23-3.56.23-18,.23-19.5v-9c0-1.08-.15-17.21-.23-18.49,1.85,0,21.93-.87,24.39-1.14l.31,5.31c-2.46,0-16.31.34-17.55.34V59.52c1.39,0,11.24-.34,15-.74l.23,5.31c-1.69,0-13.7-.27-15.24-.27v16.4c1.85,0,12.16.2,18.47-.2Z"/><path d="M287.65,38.08c-.31,1.48-.62,14.72-.62,23.19v19c1.85,0,10.93,0,18.31-.27v5.78c-1.08,0-23.93-.67-25.86-.67.62-3.56.62-18,.62-19.56V56.63c0-1.08-.15-17.28-.31-18.56Z"/><path d="M330,38.08c-.31,1.48-.62,14.72-.62,23.19v19c1.85,0,10.93,0,18.31-.27v5.78c-1.08,0-23.93-.67-25.86-.67.62-3.56.62-18,.62-19.56V56.63c0-1.08-.15-17.28-.31-18.56Z"/><path d="M390.45,85.81c-1.23,0-24.39-.67-25.93-.67.23-3.56.23-18,.23-19.5v-9c0-1.08-.15-17.21-.23-18.49,1.85,0,21.93-.87,24.39-1.14l.31,5.31c-2.46,0-16.31.34-17.54.34V59.52c1.39,0,11.23-.34,15-.74l.23,5.31c-1.69,0-13.7-.27-15.24-.27v16.4c1.85,0,12.16.2,18.47-.2Z"/><path d="M42.69,106.56,39.16,93.45H41c1,4.3,2.43,9.72,2.68,11.21h0c.34-1.68,2.15-7.86,3-11.21h1.7c.79,2.94,2.58,9.59,2.86,11.16h0c.43-2.26,2.26-8.46,3-11.16H56l-3.83,13.12H50.28c-.79-3-2.47-9.27-2.79-10.84h0c-.4,2-2.09,7.82-2.92,10.84Z"/><path d="M61.27,92.73v5.69a3.17,3.17,0,0,1,3-1.64c1.53,0,3.22.83,3.22,3.67v6.11H65.81v-5.82c0-1.62-.68-2.53-2.07-2.53-1.71,0-2.47,1.13-2.47,3.13v5.22H59.61V92.73Z"/><path d="M73.3,102.08c0,1.94,1,3.34,2.62,3.34a2.2,2.2,0,0,0,2.3-1.49h1.68a3.9,3.9,0,0,1-4,2.86c-3,0-4.22-2.45-4.22-4.9,0-2.85,1.43-5.11,4.33-5.11,3.09,0,4.09,2.47,4.09,4.5,0,.3,0,.55,0,.79Zm5.09-1.15c0-1.58-.81-2.85-2.43-2.85s-2.43,1.17-2.6,2.85Z"/><path d="M84.21,99.61c0-1.34,0-2.09,0-2.6h1.62c0,.26.06,1,.06,1.94a3.34,3.34,0,0,1,3.2-2.17v1.64c-2,.06-3.2,1.09-3.2,3.51v4.64H84.21Z"/><path d="M93.71,102.08c0,1.94,1,3.34,2.62,3.34a2.2,2.2,0,0,0,2.3-1.49h1.68a3.9,3.9,0,0,1-4,2.86c-3,0-4.22-2.45-4.22-4.9,0-2.85,1.43-5.11,4.33-5.11,3.09,0,4.09,2.47,4.09,4.5,0,.3,0,.55,0,.79Zm5.09-1.15c0-1.58-.81-2.85-2.43-2.85s-2.43,1.17-2.6,2.85Z"/><path d="M111.43,92.73h1.66v5.63a3.11,3.11,0,0,1,3-1.58c2.41,0,3.92,2,3.92,4.81s-1.47,5.2-4.16,5.2a2.79,2.79,0,0,1-2.81-1.49,10.27,10.27,0,0,1-.08,1.26h-1.58c0-1.07,0-2.15,0-3.2Zm4.32,5.45c-2,0-2.75,1.36-2.75,3.64,0,2,.64,3.58,2.66,3.58,1.7,0,2.69-1.45,2.69-3.77C118.34,99.55,117.4,98.18,115.74,98.18Z"/><path d="M125.32,102.08c0,1.94,1,3.34,2.62,3.34a2.2,2.2,0,0,0,2.3-1.49h1.68a3.9,3.9,0,0,1-4,2.86c-3,0-4.22-2.45-4.22-4.9,0-2.85,1.43-5.11,4.33-5.11,3.09,0,4.09,2.47,4.09,4.5,0,.3,0,.55,0,.79Zm5.09-1.15c0-1.58-.81-2.85-2.43-2.85s-2.43,1.17-2.6,2.85Z"/><path d="M143.35,104.47a14.83,14.83,0,0,0,.13,2.09H141.9a4.93,4.93,0,0,1-.15-1.24,3,3,0,0,1-3,1.47,2.89,2.89,0,0,1-3.22-2.92c0-2.13,1.68-3.11,4.52-3.11h1.62v-.81c0-.85-.26-1.87-2.05-1.87-1.58,0-1.87.79-2,1.53H136c.13-1.32.94-2.83,3.69-2.83,2.34,0,3.64,1,3.64,3.13Zm-1.62-2.56h-1.55c-1.9,0-2.92.53-2.92,1.87a1.68,1.68,0,0,0,1.87,1.71c2.3,0,2.6-1.55,2.6-3.28Z"/><path d="M155.81,103.77c0,.94,0,2.22,0,2.79h-1.6c0-.24-.06-.83-.08-1.43a2.83,2.83,0,0,1-2.88,1.66c-1.62,0-3.17-.81-3.17-3.51V97h1.64v5.94c0,1.24.4,2.41,2,2.41,1.75,0,2.43-1,2.43-3.37V97h1.66Z"/><path d="M159.66,97h1.66V94.18H163V97h2.11v1.34H163v5.6c0,.94.23,1.41,1.09,1.41a4.37,4.37,0,0,0,.83-.08v1.24a4.4,4.4,0,0,1-1.43.17c-1.49,0-2.13-.77-2.13-2.36v-6h-1.66Z"/><path d="M169.95,97c1.55,4.58,2.39,7.1,2.66,8.08h0c.3-1.09,1-3.28,2.54-8.08h1.66l-3.43,10c-1,2.81-1.7,3.51-3.64,3.51-.3,0-.66,0-1-.06V109c.25,0,.53,0,.79,0,1.21,0,1.66-.53,2.22-2.11L168.16,97Z"/><path d="M187.29,99.48c0-.83,0-1.7,0-2.47h1.58c0,.28.08,1,.08,1.47a3,3,0,0,1,2.77-1.7,2.63,2.63,0,0,1,2.66,1.71,3.25,3.25,0,0,1,3-1.71c1.56,0,3,.92,3,3.51v6.28h-1.62v-6.09c0-1.09-.4-2.26-1.88-2.26s-2.24,1.17-2.24,2.86v5.48H193v-6c0-1.22-.34-2.32-1.85-2.32s-2.26,1.24-2.26,3.05v5.3h-1.64Z"/><path d="M206.25,102.08c0,1.94,1,3.34,2.62,3.34a2.2,2.2,0,0,0,2.3-1.49h1.68a3.9,3.9,0,0,1-4,2.86c-3,0-4.22-2.45-4.22-4.9,0-2.85,1.43-5.11,4.33-5.11,3.09,0,4.09,2.47,4.09,4.5,0,.3,0,.55,0,.79Zm5.09-1.15c0-1.58-.81-2.85-2.43-2.85s-2.43,1.17-2.6,2.85Z"/><path d="M218.25,102.08c0,1.94,1,3.34,2.62,3.34a2.2,2.2,0,0,0,2.3-1.49h1.68a3.9,3.9,0,0,1-4,2.86c-3,0-4.22-2.45-4.22-4.9,0-2.85,1.43-5.11,4.33-5.11,3.09,0,4.09,2.47,4.09,4.5,0,.3,0,.55,0,.79Zm5.09-1.15c0-1.58-.81-2.85-2.43-2.85s-2.43,1.17-2.6,2.85Z"/><path d="M228,97h1.66V94.18h1.64V97h2.11v1.34h-2.11v5.6c0,.94.23,1.41,1.09,1.41a4.37,4.37,0,0,0,.83-.08v1.24a4.4,4.4,0,0,1-1.43.17c-1.49,0-2.13-.77-2.13-2.36v-6H228Z"/><path d="M238.27,103.83a2.16,2.16,0,0,0,2.34,1.66c1.39,0,1.94-.6,1.94-1.47s-.43-1.32-2.26-1.75c-2.73-.66-3.3-1.51-3.3-2.81s1-2.68,3.45-2.68,3.49,1.43,3.6,2.75h-1.58a1.91,1.91,0,0,0-2.07-1.47c-1.34,0-1.75.64-1.75,1.26s.4,1.07,2.15,1.49c2.9.7,3.49,1.66,3.49,3.07,0,1.68-1.34,2.9-3.71,2.9s-3.69-1.24-3.94-3Z"/><path d="M261.52,105.19a3,3,0,0,1-3,1.6c-2.17,0-4-1.71-4-4.9s1.9-5.11,4.2-5.11c1.77,0,2.56.81,2.79,1.43a9,9,0,0,1,.06-1.21h1.56c0,1,0,1.77,0,2.64v10.67h-1.6Zm-2.64.21c2.07,0,2.68-1.43,2.68-3.66s-.55-3.54-2.6-3.54c-1.79,0-2.71,1.51-2.71,3.62C256.25,103.75,257.08,105.39,258.89,105.39Z"/><path d="M275.66,103.77c0,.94,0,2.22,0,2.79h-1.6c0-.24-.06-.83-.08-1.43a2.83,2.83,0,0,1-2.88,1.66c-1.62,0-3.17-.81-3.17-3.51V97h1.64v5.94c0,1.24.4,2.41,2,2.41,1.75,0,2.43-1,2.43-3.37V97h1.66Z"/><path d="M287.65,104.47a14.83,14.83,0,0,0,.13,2.09H286.2a4.93,4.93,0,0,1-.15-1.24,3,3,0,0,1-3,1.47,2.89,2.89,0,0,1-3.22-2.92c0-2.13,1.68-3.11,4.52-3.11H286v-.81c0-.85-.26-1.87-2.05-1.87-1.58,0-1.87.79-2,1.53h-1.6c.13-1.32.94-2.83,3.69-2.83,2.34,0,3.64,1,3.64,3.13ZM286,101.91h-1.55c-1.9,0-2.92.53-2.92,1.87a1.68,1.68,0,0,0,1.87,1.71c2.3,0,2.6-1.55,2.6-3.28Z"/><path d="M292.53,106.56V92.73h1.66v13.83Z"/><path d="M299,94.78V92.73h1.66v2.05ZM299,97h1.66v9.55H299Z"/><path d="M304.38,97H306V94.18h1.64V97h2.11v1.34h-2.11v5.6c0,.94.23,1.41,1.09,1.41a4.37,4.37,0,0,0,.83-.08v1.24a4.4,4.4,0,0,1-1.43.17c-1.49,0-2.13-.77-2.13-2.36v-6h-1.66Z"/><path d="M314.67,97c1.55,4.58,2.39,7.1,2.66,8.08h0c.3-1.09,1-3.28,2.54-8.08h1.66l-3.43,10c-1,2.81-1.7,3.51-3.64,3.51-.3,0-.66,0-1-.06V109c.25,0,.53,0,.79,0,1.21,0,1.66-.53,2.22-2.11L312.88,97Z"/><path d="M323.65,106.56v-2.79h1.73v2.79Z"/><path d="M450.21,30.37h-1.5V29.5h4.07v.87h-1.5v4.06h-1.07Z"/><path d="M457.87,32.58c0-.84,0-1.78,0-2.34h0c-.23,1-.72,2.65-1.2,4.2h-.91c-.37-1.35-.87-3.22-1.09-4.21h0c0,.58.06,1.6.06,2.44v1.77h-1V29.5h1.59c.39,1.29.82,2.91,1,3.64h0c.12-.64.66-2.38,1.07-3.64h1.53v4.94h-1Z"/><path class="b" d="M438.44,55a5.08,5.08,0,0,1-.29,3.15,7.28,7.28,0,0,1-1.9,2.66,12.18,12.18,0,0,1-5.69,2.69c-1.93.45-3.84.82-5.74,1.18s-3.8.67-5.67,1-3.74.77-5.52,1.31a17.09,17.09,0,0,0-2.54,1,6,6,0,0,0-1.08.65,2.23,2.23,0,0,0-.7.77,2.12,2.12,0,0,0,.19,2.06,7.33,7.33,0,0,0,1.81,2,25,25,0,0,0,4.91,2.92l0,.13a20.78,20.78,0,0,1-5.45-2.22,8.48,8.48,0,0,1-2.35-2,3.92,3.92,0,0,1-.73-1.58,3.43,3.43,0,0,1,.15-1.85,3.86,3.86,0,0,1,1.06-1.5,7.72,7.72,0,0,1,1.32-1A17.83,17.83,0,0,1,412.94,65a47.61,47.61,0,0,1,5.68-1.69c1.9-.46,3.8-.88,5.69-1.28s3.77-.77,5.6-1.23c.47-.11.89-.25,1.31-.38s.83-.3,1.24-.44.78-.35,1.18-.52.76-.39,1.11-.62A9,9,0,0,0,438.3,55Z"/><path class="b" d="M441,30.22a15.21,15.21,0,0,1,1,3.41,13.23,13.23,0,0,1,.22,3.68,7.93,7.93,0,0,1-.15,1l-.12.5c-.05.17-.12.34-.19.52a5.55,5.55,0,0,1-.55,1,7.61,7.61,0,0,1-.66.82,14.34,14.34,0,0,1-3,2.41,48.15,48.15,0,0,1-6.31,3.1l-3.14,1.35c-1.08.46-2.22.92-3.33,1.27-2.24.74-4.49,1.25-6.71,1.82a51.27,51.27,0,0,0-6.5,1.92,19.37,19.37,0,0,0-3,1.47c-1,.61-1.92,1.23-2.83,1.9a13.36,13.36,0,0,0-2.5,2.26,5,5,0,0,0-1.13,3.09H402a5.42,5.42,0,0,1,.22-1.73,5.87,5.87,0,0,1,.78-1.57,14.33,14.33,0,0,1,2.39-2.54c.87-.77,1.77-1.48,2.68-2.19a24.44,24.44,0,0,1,3-1.89c4.17-2.16,8.62-3.56,12.71-5.33,1-.43,2-.89,3-1.4l3.09-1.55c2-1,4.11-2,6-3A14.38,14.38,0,0,0,438.36,39c.19-.15.32-.31.48-.46a2.91,2.91,0,0,0,.32-.43l.16-.27.14-.31a6.51,6.51,0,0,0,.26-.68,19.77,19.77,0,0,0,.68-3.16c.16-1.11.3-2.25.45-3.43Z"/><path class="b" d="M409.2,57a31.06,31.06,0,0,0-2.43,2,13.49,13.49,0,0,0-2,2.25c-.14.2-.26.42-.39.62s-.21.43-.29.65a4.07,4.07,0,0,0-.21,1.38,5.47,5.47,0,0,0,.69,2.85l-.09.11a2.86,2.86,0,0,1-1.07-1.28,4.85,4.85,0,0,1-.42-1.63,4,4,0,0,1,0-.42l0-.45a3.56,3.56,0,0,1,.21-.86c.1-.27.23-.53.36-.78s.29-.49.46-.7a11.12,11.12,0,0,1,2.36-2.25,14.44,14.44,0,0,1,2.78-1.59Z"/><path class="b" d="M444.7,39.92a6,6,0,0,1,1.61,3.24,6.48,6.48,0,0,1-.56,3.85,7.46,7.46,0,0,1-2.62,3c-.95.66-1.93,1.26-2.93,1.82a70.52,70.52,0,0,1-12.55,5.36c-2.16.69-4.37,1.27-6.51,1.83s-4.3,1.18-6.39,1.89a31,31,0,0,0-3.06,1.21,10.7,10.7,0,0,0-2.72,1.7,8.19,8.19,0,0,0-2,2.5,3.87,3.87,0,0,0-.23,3.13l-.13.06a4.2,4.2,0,0,1-.12-3.39,8.36,8.36,0,0,1,1.88-2.92A12.06,12.06,0,0,1,411.14,61a32,32,0,0,1,3.07-1.53c2.08-.92,4.2-1.7,6.32-2.46s4.22-1.45,6.27-2.27a101.26,101.26,0,0,0,12-5.52c.95-.54,1.9-1.07,2.83-1.63a6.17,6.17,0,0,0,2-1.77,5.59,5.59,0,0,0,.91-2.61,16.7,16.7,0,0,0,0-3.24Z"/><path class="b" d="M424.08,82.19a39.5,39.5,0,0,1,3.57,2.4c.57.44,1.13.89,1.68,1.39a9,9,0,0,1,.79.81,3.65,3.65,0,0,1,.69,1.09,1.29,1.29,0,0,1-.05,1.07,1.08,1.08,0,0,1-.24.29,1.32,1.32,0,0,1-.25.17,2.08,2.08,0,0,1-.39.15,6.42,6.42,0,0,1-1.21.19c-.75,0-1.48,0-2.2,0-1.44,0-2.87-.11-4.29-.21l-4.24-.29c-1.41-.1-2.81-.19-4.2-.22-.69,0-1.38,0-2.05,0a14.45,14.45,0,0,0-1.88.11,4.48,4.48,0,0,0-3.13,1.92l-.14,0a3.17,3.17,0,0,1,.7-2.27,4.87,4.87,0,0,1,2-1.47,8.29,8.29,0,0,1,2.34-.47,20.86,20.86,0,0,1,2.21,0c2.9.11,5.74.42,8.56.75,1.41.15,2.81.33,4.21.47.69.07,1.39.12,2.06.13a5.37,5.37,0,0,0,.91,0l.12,0,0,0a.27.27,0,0,0-.06.09c-.06.13,0,.14,0,0a2.45,2.45,0,0,0-.38-.74c-.19-.27-.4-.53-.62-.79-.44-.52-.93-1-1.42-1.53-1-1-2-2-3.09-2.92Z"/><path class="b" d="M438.21,35.21a5.71,5.71,0,0,1,2,1.37,5.24,5.24,0,0,1,1.32,2.25,4.76,4.76,0,0,1-.1,2.72,8.51,8.51,0,0,1-1.17,2.28,16.08,16.08,0,0,1-3.41,3.41,20.41,20.41,0,0,1-4.06,2.41l-.07-.12c1.15-1.05,2.28-2.1,3.33-3.2a21.92,21.92,0,0,0,2.82-3.44,8,8,0,0,0,.9-1.86,4.3,4.3,0,0,0,.16-1.86,9.86,9.86,0,0,0-1.85-3.86Z"/></svg>